<svg width="800" height="725" viewBox="0 0 800 725" fill="none" xmlns="http://www.w3.org/2000/svg">
<path d="M505.265 598.684H547.37V640.79H505.265V598.684ZM547.37 598.684H589.475V640.79H547.37V598.684ZM589.475 598.684H631.58V640.79H589.475V598.684ZM252.634 640.79H294.739V682.894H252.634V640.79ZM294.739 640.79H336.844V682.894H294.739V640.79ZM336.844 640.79H378.95V682.894H336.844V640.79ZM378.95 640.79H421.054V682.894H378.95V640.79ZM421.054 640.79H463.16V682.894H421.054V640.79ZM463.16 640.79H505.265V682.894H463.16V640.79ZM505.265 640.79H547.37V682.894H505.265V640.79ZM589.475 640.79H631.58V682.894H589.475V640.79ZM505.265 682.894H547.37V724.999H505.265V682.894ZM547.37 682.894H589.475V724.999H547.37V682.894ZM589.475 682.894H631.58V724.999H589.475" fill="white"/>
<path d="M0 449.011H42.1058V491.116H0V449.011ZM42.1058 449.011H84.2104V491.116H42.1058V449.011ZM84.2104 449.011H126.316V491.116H84.2104V449.011ZM0 491.116H42.1058V533.222H0V491.116ZM84.2104 491.116H126.316V533.222H84.2104V491.116ZM126.316 491.116H168.421V533.222H126.316V491.116ZM168.421 491.116H210.527V533.222H168.421V491.116ZM210.527 491.116H252.631V533.222H210.527V491.116ZM252.631 491.116H294.737V533.222H252.631V491.116ZM294.737 491.116H336.842V533.222H294.737V491.116ZM336.842 491.116H378.948V533.222H336.842V491.116ZM378.948 491.116H421.052V533.222H378.948V491.116ZM421.052 491.116H463.158V533.222H421.052V491.116ZM463.158 491.116H505.263V533.222H463.158V491.116ZM505.263 491.116H547.367V533.222H505.263V491.116ZM547.367 491.116H589.473V533.222H547.367V491.116ZM589.473 491.116H631.578V533.222H589.473V491.116ZM631.578 491.116H673.684V533.222H631.578V491.116ZM673.684 491.116H715.788V533.222H673.684V491.116ZM0 533.222H42.1058V575.327H0V533.222ZM42.1058 533.222H84.2104V575.327H42.1058V533.222ZM84.2104 533.222H126.316V575.327H84.2104" fill="#40AE9A"/>
<path d="M42.1064 341.448H84.2111V383.552H42.1064V341.448ZM84.2111 341.448H126.317V383.552H84.2111V341.448ZM126.317 341.448H168.422V383.552H126.317V341.448ZM168.422 341.448H210.527V383.552H168.422V341.448ZM210.527 341.448H252.632V383.552H210.527V341.448ZM252.632 341.448H294.738V383.552H252.632V341.448ZM294.738 341.448H336.842V383.552H294.738V341.448ZM336.842 341.448H378.948V383.552H336.842V341.448ZM378.948 341.448H421.053V383.552H378.948V341.448ZM421.053 341.448H463.159V383.552H421.053V341.448ZM463.159 341.448H505.263V383.552H463.159V341.448ZM505.263 341.448H547.368V383.552H505.263V341.448ZM547.368 341.448H589.474V383.552H547.368V341.448ZM589.474 341.448H631.578V383.552H589.474V341.448ZM631.578 341.448H673.684V383.552H631.578V341.448ZM673.684 341.448H715.789V383.552H673.684V341.448ZM715.789 341.448H757.895V383.552H715.789" fill="#40AE9A"/>
<path d="M673.685 149.669H715.79V191.776H673.685V149.669ZM715.79 149.669H757.895V191.776H715.79V149.669ZM757.895 149.669H800V191.776H757.895V149.669ZM84.2117 191.776H126.318V233.881H84.2117V191.776ZM126.318 191.776H168.422V233.881H126.318V191.776ZM168.422 191.776H210.528V233.881H168.422V191.776ZM210.528 191.776H252.633V233.881H210.528V191.776ZM252.633 191.776H294.738V233.881H252.633V191.776ZM294.738 191.776H336.843V233.881H294.738V191.776ZM336.843 191.776H378.949V233.881H336.843V191.776ZM378.949 191.776H421.054V233.881H378.949V191.776ZM421.054 191.776H463.159V233.881H421.054V191.776ZM463.159 191.776H505.264V233.881H463.159V191.776ZM505.264 191.776H547.369V233.881H505.264V191.776ZM547.369 191.776H589.474V233.881H547.369V191.776ZM589.474 191.776H631.579V233.881H589.474V191.776ZM631.579 191.776H673.685V233.881H631.579V191.776ZM673.685 191.776H715.79V233.881H673.685V191.776ZM757.895 191.776H800V233.881H757.895V191.776ZM673.685 233.881H715.79V275.985H673.685V233.881ZM715.79 233.881H757.895V275.985H715.79V233.881ZM757.895 233.881H800V275.985H757.895" fill="white"/>
<path d="M210.53 0H252.634V42.1046H210.53V0ZM252.634 0H294.74V42.1046H252.634V0ZM294.74 0H336.845V42.1046H294.74V0ZM210.53 42.1046H252.634V84.2105H210.53V42.1046ZM294.74 42.1046H336.845V84.2105H294.74V42.1046ZM336.845 42.1046H378.951V84.2105H336.845V42.1046ZM378.951 42.1046H421.055V84.2105H378.951V42.1046ZM421.055 42.1046H463.161V84.2105H421.055V42.1046ZM463.161 42.1046H505.266V84.2105H463.161V42.1046ZM505.266 42.1046H547.37V84.2105H505.266V42.1046ZM210.53 84.2105H252.634V126.315H210.53V84.2105ZM252.634 84.2105H294.74V126.315H252.634V84.2105ZM294.74 84.2105H336.845V126.315H294.74" fill="white"/>
</svg>
